<svg width="76" height="34" fill="none" xmlns="http://www.w3.org/2000/svg"><path d="M7.521 15.38a7.612 7.612 0 01-2.98-.58 7.323 7.323 0 01-2.38-1.62 7.6 7.6 0 01-1.6-2.44c-.373-.933-.56-1.953-.56-3.06s.187-2.127.56-3.06c.373-.947.9-1.76 1.58-2.44a7.067 7.067 0 012.38-1.6c.92-.387 1.92-.58 3-.58s2.047.18 2.9.54c.867.36 1.6.84 2.2 1.44.6.6 1.027 1.267 1.28 2l-2.74 1.32a3.673 3.673 0 00-1.34-1.78c-.627-.48-1.393-.72-2.3-.72-.88 0-1.653.207-2.32.62a4.239 4.239 0 00-1.56 1.72c-.36.72-.54 1.567-.54 2.54 0 .973.18 1.827.54 2.56a4.238 4.238 0 001.56 1.72c.667.413 1.44.62 2.32.62.907 0 1.673-.233 2.3-.7a3.786 3.786 0 001.34-1.8l2.74 1.32c-.253.733-.68 1.4-1.28 2-.6.6-1.333 1.08-2.2 1.44-.853.36-1.82.54-2.9.54zm10.37-.24V.24h3.1v12.2h6.3v2.7h-9.4zm12.937 0V.24h10.02v2.7h-6.92v3.38h6.52v2.7h-6.52v3.42h6.92v2.7h-10.02zm12.677 0l5.04-14.9h4.12l5.04 14.9h-3.38l-1-3.04h-5.46l-1 3.04h-3.36zm5.22-5.74h3.74l-2.28-7.04h.84l-2.3 7.04zm12.529 5.74V.24h5.7c1.026 0 1.933.18 2.72.54.8.36 1.426.893 1.88 1.6.453.707.68 1.58.68 2.62 0 1.013-.234 1.88-.7 2.6a4.398 4.398 0 01-1.88 1.6l3.4 5.94h-3.48l-3.68-6.58 2 1.18h-3.54v5.4h-3.1zm3.1-8.1h2.62c.44 0 .82-.087 1.14-.26.32-.173.566-.413.74-.72.186-.307.28-.66.28-1.06 0-.413-.094-.773-.28-1.08a1.833 1.833 0 00-.74-.72c-.32-.173-.7-.26-1.14-.26h-2.62v4.1z" fill="#2B7FFF"/><path d="M7.521 33.38a7.612 7.612 0 01-2.98-.58 7.323 7.323 0 01-2.38-1.62 7.6 7.6 0 01-1.6-2.44c-.373-.933-.56-1.953-.56-3.06s.187-2.127.56-3.06c.373-.947.9-1.76 1.58-2.44a7.067 7.067 0 012.38-1.6c.92-.387 1.92-.58 3-.58s2.047.18 2.9.54c.867.36 1.6.84 2.2 1.44.6.6 1.027 1.267 1.28 2l-2.74 1.32a3.673 3.673 0 00-1.34-1.78c-.627-.48-1.393-.72-2.3-.72-.88 0-1.653.207-2.32.62a4.238 4.238 0 00-1.56 1.72c-.36.72-.54 1.567-.54 2.54 0 .973.18 1.827.54 2.56a4.238 4.238 0 001.56 1.72c.667.413 1.44.62 2.32.62.907 0 1.673-.233 2.3-.7a3.786 3.786 0 001.34-1.8l2.74 1.32c-.253.733-.68 1.4-1.28 2-.6.6-1.333 1.08-2.2 1.44-.853.36-1.82.54-2.9.54zm9.27-.24l5.04-14.9h4.12l5.04 14.9h-3.38l-1-3.04h-5.46l-1 3.04h-3.36zm5.22-5.74h3.74l-2.28-7.04h.84l-2.3 7.04zm18.057 5.98c-1.173 0-2.22-.247-3.14-.74a5.687 5.687 0 01-2.18-2.02c-.52-.867-.78-1.847-.78-2.94v-9.44h3.1v9.24c0 .587.127 1.12.38 1.6a2.95 2.95 0 001.08 1.1c.453.267.967.4 1.54.4.587 0 1.1-.133 1.54-.4a2.803 2.803 0 001.06-1.1c.267-.48.4-1.013.4-1.6v-9.24h3.1v9.44c0 1.093-.267 2.073-.8 2.94a5.537 5.537 0 01-2.16 2.02c-.92.493-1.966.74-3.14.74zm15.973 0a6.992 6.992 0 01-2.64-.5 6.347 6.347 0 01-2.12-1.46 6.11 6.11 0 01-1.32-2.22l2.54-1.14c.373.813.886 1.453 1.54 1.92.666.467 1.4.7 2.2.7.426 0 .793-.067 1.1-.2.306-.133.546-.313.72-.54a1.4 1.4 0 00.26-.84c0-.347-.107-.64-.32-.88-.214-.253-.547-.453-1-.6l-2.92-.96c-1.187-.387-2.08-.933-2.68-1.64-.6-.72-.9-1.58-.9-2.58 0-.88.213-1.653.64-2.32.44-.667 1.046-1.187 1.82-1.56.786-.373 1.686-.56 2.7-.56.893 0 1.72.153 2.48.46.76.307 1.413.74 1.96 1.3.56.56.98 1.233 1.26 2.02l-2.52 1.14c-.28-.693-.7-1.233-1.26-1.62-.56-.4-1.2-.6-1.92-.6-.414 0-.78.067-1.1.2-.32.133-.567.327-.74.58-.174.24-.26.52-.26.84 0 .347.113.653.34.92.226.253.566.453 1.02.6l2.86.92c1.2.387 2.093.927 2.68 1.62.6.693.9 1.54.9 2.54 0 .867-.227 1.64-.68 2.32-.454.667-1.08 1.193-1.88 1.58-.787.373-1.707.56-2.76.56zm9.529-.24v-14.9h10.02v2.7h-6.92v3.38h6.52v2.7h-6.52v3.42h6.92v2.7H65.57z" fill="#1447E6"/></svg>