<svg width="27" height="27" fill="none" xmlns="http://www.w3.org/2000/svg"><g clip-path="url(#clip0_4093_8177)"><g clip-path="url(#clip1_4093_8177)"><g clip-path="url(#clip2_4093_8177)"><path d="M13.738 26.268c0-7.1-5.88-12.878-13.106-12.878-.051 0-.1.007-.152.008V.838C.531.838.581.834.632.834c14.295 0 25.884 11.387 25.884 25.434H13.738z" fill="#5326EC"/></g></g></g><defs><clipPath id="clip0_4093_8177"><path fill="#fff" transform="matrix(1 0 0 -1 0 27)" d="M0 0h27v27H0z"/></clipPath><clipPath id="clip1_4093_8177"><path fill="#fff" transform="matrix(1 0 0 -1 0 27)" d="M0 0h27v27H0z"/></clipPath><clipPath id="clip2_4093_8177"><path fill="#fff" transform="matrix(1 0 0 -1 .48 27)" d="M0 0h26.036v27H0z"/></clipPath></defs></svg>