<svg width="147" height="32" fill="none" xmlns="http://www.w3.org/2000/svg"><path fill-rule="evenodd" clip-rule="evenodd" d="M141 15.212l-.2.9a11.606 11.606 0 01-7.8 8.2 11.3 11.3 0 01-11-2.5 11.999 11.999 0 01-3.4-5.7l-.3-.8-.2-1.4c-.6-2.7-1.7-5.2-3.4-7.4l-.7-.7-.2-.3-.7-.6-.1-.2-.5-.4-1.3-1a16.701 16.701 0 00-26.2 10.1v.4l-.3 1.4-.2.9a11.599 11.599 0 01-7.8 8.2 11.3 11.3 0 01-11-2.5 12 12 0 01-3.5-5.7l-.2-1h-.1l-.3-1.3c-.5-2.7-1.7-5.2-3.4-7.4l-.6-.7-.3-.3-.6-.6-.2-.2-.4-.4-1.3-1a16.7 16.7 0 00-26.2 10.1v.3l-.1.1-.3 1.4-.3.9a11.599 11.599 0 01-7.8 8.2 11.3 11.3 0 01-11-2.5 12 12 0 01-3.4-5.6l-.3-.9H0l.3 1.4c.5 2.7 1.7 5.2 3.4 7.3l.6.8.3.3.6.6.2.2.4.3 1.3 1a16.7 16.7 0 0026.2-10v-.4h.1l.3-1.4.3-.9a11.6 11.6 0 017.8-8.2 11.3 11.3 0 0111 2.5 12 12 0 013.4 5.7l.3.8.3 1.4a17.3 17.3 0 004 8l.3.4.6.6.2.1.5.4c.4.4.8.8 1.3 1a16.701 16.701 0 0026.1-10l.1-.4.3-1.5.2-.8a11.6 11.6 0 017.8-8.2 11.3 11.3 0 0111 2.5 12.003 12.003 0 013.5 5.7l.2.8.3 1.4c.5 2.7 1.7 5.2 3.4 7.3l.6.8.3.3.6.6.2.2.4.3 1.3 1a16.7 16.7 0 0026.2-10v-.4l.4-1.5H141zm-80.8-2.3v.2-.3.1zm56.5 0v.1-.2.1zm-3-5.6l-.5-.7.6.7h-.1z" fill="#8668FC"/></svg>