<svg width="216" height="38" fill="none" xmlns="http://www.w3.org/2000/svg"><g clip-path="url(#clip0_3717_1887)"><g clip-path="url(#clip1_3717_1887)"><path fill-rule="evenodd" clip-rule="evenodd" d="M171.065 19.23l-.336 1.063c-.702 2.402-2.104 4.605-4.07 6.393-1.967 1.789-4.43 3.102-7.15 3.813-2.721.71-5.606.794-8.374.242-2.769-.552-5.326-1.72-7.423-3.392-2.383-1.892-4.101-4.335-4.954-7.046l-.312-1.018h.021l-.415-1.737c-.774-3.318-2.446-6.426-4.876-9.066-.281-.307-.597-.62-.884-.907l-.365-.365-.041-.042-.891-.78-.234-.162c-.206-.148-.431-.313-.669-.487-.574-.422-1.222-.9-1.872-1.294-4.403-2.705-9.714-4.052-15.092-3.826-5.378.225-10.516 2.01-14.601 5.072-3.956 2.938-6.714 6.917-7.858 11.34a18.02 18.02 0 00-.092.369l-.03.121-.428 1.739h.078l-.327 1.03c-.7 2.402-2.103 4.605-4.069 6.393-1.966 1.79-4.43 3.103-7.15 3.813-2.72.71-5.606.794-8.375.242-2.768-.552-5.325-1.72-7.423-3.392-2.38-1.892-4.098-4.334-4.952-7.043l-.324-1.051h-.107l-.406-1.703c-.776-3.318-2.447-6.426-4.876-9.066-.282-.308-.598-.62-.885-.907l-.364-.366-.041-.041-.892-.78-.234-.162c-.207-.148-.43-.314-.668-.487-.574-.422-1.222-.9-1.872-1.294C42.829 1.74 37.518.394 32.14.62c-5.378.225-10.516 2.01-14.602 5.07-3.956 2.938-6.713 6.918-7.858 11.34-.032.122-.065.258-.092.37-.011.047-.02.088-.029.12l-.42 1.708h-.043l-.337 1.062c-.702 2.402-2.104 4.605-4.07 6.394-1.966 1.789-4.43 3.102-7.15 3.813a18.75 18.75 0 01-8.374.241c-2.768-.552-5.326-1.72-7.423-3.392-2.38-1.892-4.098-4.335-4.951-7.044l-.325-1.051-1.248-.014c-.451-.004-.906-.004-1.348-.004h-.45l-4.756-.005.414 1.738c.776 3.318 2.448 6.427 4.877 9.067.281.304.598.62.885.907.13.129.253.25.365.363l.04.044.892.776.234.162v.004c.207.144.431.31.669.484.574.425 1.222.9 1.872 1.299 4.403 2.705 9.714 4.05 15.092 3.824 5.378-.226 10.516-2.011 14.6-5.073 3.958-2.939 6.715-6.92 7.858-11.343.033-.121.066-.257.092-.37l.03-.12.42-1.703h.043l.337-1.06c.701-2.402 2.103-4.605 4.07-6.393 1.965-1.79 4.429-3.103 7.15-3.813 2.72-.71 5.605-.794 8.374-.242 2.768.552 5.326 1.72 7.423 3.392 2.38 1.891 4.098 4.332 4.953 7.041l.325 1.051h.106l.407 1.703c.776 3.318 2.447 6.426 4.875 9.066.282.304.598.62.885.907.13.13.254.25.364.363l.042.044.89.777.235.162v.003c.207.145.43.31.669.484.574.425 1.222.9 1.872 1.3 4.403 2.704 9.714 4.05 15.092 3.824 5.378-.227 10.516-2.012 14.6-5.074 3.958-2.938 6.716-6.919 7.86-11.343.032-.121.065-.256.091-.369.011-.044.02-.086.03-.121l.428-1.739h-.078l.326-1.027c.701-2.402 2.104-4.605 4.07-6.393 1.966-1.79 4.429-3.103 7.15-3.813a18.753 18.753 0 018.374-.242c2.769.552 5.326 1.72 7.423 3.392 2.382 1.89 4.099 4.332 4.953 7.041l.312 1.022h-.021l.414 1.738c.776 3.318 2.448 6.427 4.876 9.067.282.304.599.62.885.906l.365.364.04.044.892.776.234.162v.004c.206.144.432.31.668.484.574.425 1.223.9 1.873 1.299 4.403 2.705 9.714 4.05 15.092 3.824 5.378-.226 10.516-2.011 14.602-5.073 3.956-2.939 6.714-6.92 7.858-11.343.032-.121.064-.257.091-.37l.03-.12.428-1.74-7.917-.022zm-199.96 2.885l-.033-.11.086.267a2.502 2.502 0 01-.057-.157h.004zm4.948 7.844zm2.954 2.37a15.417 15.417 0 00-.004 0h.004zM55.45 17.846l-.02-.079c0 .026.01.053.016.079h.004zm-.405-1.444c.016.049.03.098.044.146-.038-.121-.078-.242-.117-.362.02.073.046.144.068.216h.005zm-4.949-7.841zm2.119 13.553l-.034-.109c.028.088.056.176.086.263-.021-.05-.036-.102-.056-.153h.004zM114.33 2.035a25.697 25.697 0 013.489.242c3.404.47 6.639 1.616 9.457 3.348-3.793-2.327-8.314-3.58-12.95-3.589h.004zm21.703 14.366l.04.132-.106-.326c.018.066.04.13.059.195h.007zm-4.141-7.015a26.23 26.23 0 00-.808-.826c.27.272.545.543.808.826zm1.18 12.729c-.012-.037-.022-.076-.034-.112l.088.272a1.944 1.944 0 01-.058-.16h.004zm4.141 7.015c.259.28.533.554.807.826a21.972 21.972 0 01-.811-.823l.004-.003zm6.716 4.903a24.996 24.996 0 008.639 2.347 25.003 25.003 0 01-8.643-2.343l.004-.004zm10.706 2.445c3.988.03 7.914-.866 11.375-2.596-3.461 1.733-7.389 2.63-11.379 2.6l.004-.004z" fill="#FFC9E2"/></g></g><defs><clipPath id="clip0_3717_1887"><path fill="#fff" d="M0 0h216v38H0z"/></clipPath><clipPath id="clip1_3717_1887"><path fill="#fff" transform="translate(36.871)" d="M0 0h142.256v38H0z"/></clipPath></defs></svg>