<svg width="30" height="30" fill="none" xmlns="http://www.w3.org/2000/svg"><g clip-path="url(#clip0_4108_4573)"><g clip-path="url(#clip1_4108_4573)" fill="#E1458D"><path d="M12.637 7.825v-5.46a2.366 2.366 0 114.73 0v5.46a2.366 2.366 0 11-4.73 0zm0 19.23v-5.46a2.365 2.365 0 014.73 0v5.46a2.366 2.366 0 01-4.73 0zm9.247-14.709h5.457a2.365 2.365 0 110 4.732h-5.46a2.367 2.367 0 11.003-4.732zm-19.23 0h5.46a2.366 2.366 0 110 4.732h-5.46a2.366 2.366 0 010-4.732z"/></g></g><defs><clipPath id="clip0_4108_4573"><path fill="#fff" d="M0 0h30v30H0z"/></clipPath><clipPath id="clip1_4108_4573"><path fill="#fff" d="M0 0h30v30H0z"/></clipPath></defs></svg>